<svg width="76" height="63" viewBox="0 0 76 63" fill="none" xmlns="http://www.w3.org/2000/svg">
<path d="M11.8418 6.62276C-10.4465 17.0322 5.65376 26.1624 5.20276 37.3778C4.82353 46.8084 -5.04033 46.7463 5.20277 55.8309C18.0067 67.1866 41.2433 62.4551 56.8925 59.143C72.5417 55.8309 78.7065 47.7873 74.9128 35.4852C71.119 23.1832 77.2839 13.7201 60.6862 6.62276C44.0886 -0.474567 34.13 -3.78665 11.8418 6.62276Z" fill="#F7F7FF"/>
<path fill-rule="evenodd" clip-rule="evenodd" d="M8.49406 17.8324C8.22165 16.9413 8.72314 15.9982 9.61417 15.7257L38.117 7.01155C40.6416 6.2397 43.3139 7.66059 44.0857 10.1852L53.9508 42.4525L25.2014 50.36L18.0303 49.0241L8.49406 17.8324Z" fill="#FFAB55"/>
<mask id="mask0" mask-type="alpha" maskUnits="userSpaceOnUse" x="8" y="6" width="46" height="45">
<path fill-rule="evenodd" clip-rule="evenodd" d="M8.49349 17.8344C8.22107 16.9434 8.72257 16.0002 9.6136 15.7278L38.1164 7.01363C40.641 6.24178 43.3133 7.66267 44.0852 10.1873L53.9503 42.4546L25.2008 50.3621L18.0298 49.0262L8.49349 17.8344Z" fill="#FFAB55"/>
</mask>
<g mask="url(#mask0)">
<path fill-rule="evenodd" clip-rule="evenodd" d="M14.6078 43.7142L34.0092 4.34895L44.6941 6.31722L54.3948 40.7618L10.9524 51.4467L14.6078 43.7142Z" fill="#F29C44"/>
<path d="M44.8831 3.17871L38.4296 5.15173L50.8432 45.7548L57.2967 43.7818L44.8831 3.17871Z" fill="#E8821A"/>
</g>
<path fill-rule="evenodd" clip-rule="evenodd" d="M16.9486 20.518L33.3512 15.5032C33.9448 15.3217 34.5741 15.6563 34.7556 16.2499L37.5507 25.3923C37.7322 25.986 37.3976 26.6153 36.804 26.7968L20.4014 31.8115C19.8078 31.993 19.1785 31.6584 18.997 31.0648L16.2019 21.9224C16.0204 21.3288 16.355 20.6995 16.9486 20.518Z" fill="white"/>
<path fill-rule="evenodd" clip-rule="evenodd" d="M24.2411 34.9398L35.5347 31.487C36.0541 31.3282 36.6048 31.621 36.7636 32.1404C36.9224 32.6598 36.6296 33.2105 36.1102 33.3693L24.8166 36.8221C24.2972 36.9809 23.7466 36.6881 23.5878 36.1687C23.4289 35.6492 23.7217 35.0986 24.2411 34.9398Z" fill="white"/>
<g opacity="0.9">
<path opacity="0.9" fill-rule="evenodd" clip-rule="evenodd" d="M18.0295 49.0243L47.737 39.9418C49.8933 39.2826 52.1934 40.554 52.8745 42.7815C53.5555 45.0091 52.3596 47.3494 50.2032 48.0086L20.4958 57.0911C20.4958 57.0911 21.1508 54.9057 20.5138 52.8222C19.8768 50.7387 18.0295 49.0243 18.0295 49.0243Z" fill="white"/>
<g opacity="0.9">
<path opacity="0.9" fill-rule="evenodd" clip-rule="evenodd" d="M29.0885 45.8231L24.3085 46.526L22.9026 55.805L36.3992 51.4467L29.0885 45.8231Z" fill="#F6F7FF"/>
<path opacity="0.9" fill-rule="evenodd" clip-rule="evenodd" d="M27.2563 51.8652C30.1422 51.0259 35.4744 49.4135 36.226 49.0305C36.9776 48.6476 36.2308 49.6592 34.3494 50.3023C32.468 50.9453 25.0015 53.014 25.0015 53.014C25.0015 53.014 24.3704 52.7044 27.2563 51.8652Z" fill="#DDDFED"/>
<path opacity="0.9" fill-rule="evenodd" clip-rule="evenodd" d="M23.8867 51.4467C23.8867 51.4467 29.4711 49.6808 32.6076 48.7139C35.744 47.7469 40.3836 46.0141 40.3836 46.0141C40.3836 46.0141 47.7839 43.5057 47.9754 43.8815C48.1669 44.2573 44.5908 45.2905 38.6961 47.3473C32.8014 49.404 22.0094 52.3782 22.0094 52.3782L23.8867 51.4467Z" fill="#DDDFED"/>
</g>
</g>
<path d="M19.1051 48.6956L47.737 39.9419C49.8933 39.2827 52.1934 40.5541 52.8744 42.7817C53.5555 45.0092 52.3596 47.3495 50.2032 48.0087L21.5714 56.7624" stroke="#E8821A" stroke-width="2.27179" stroke-linecap="round"/>
<path fill-rule="evenodd" clip-rule="evenodd" d="M31.9859 8.82381C32.1477 7.90621 33.0227 7.29352 33.9403 7.45531L63.2926 12.6309C65.8925 13.0893 67.6284 15.5686 67.17 18.1684L61.3108 51.3975L32.105 45.3911L26.322 40.9452L31.9859 8.82381Z" fill="#13D9C7"/>
<mask id="mask1" mask-type="alpha" maskUnits="userSpaceOnUse" x="26" y="7" width="42" height="45">
<path fill-rule="evenodd" clip-rule="evenodd" d="M31.8294 8.96272C31.9912 8.04513 32.8663 7.43243 33.7839 7.59423L63.1362 12.7698C65.736 13.2283 67.472 15.7075 67.0136 18.3073L61.1544 51.5364L31.9486 45.5301L26.1656 41.0841L31.8294 8.96272Z" fill="#13D9C7"/>
</mask>
<g mask="url(#mask1)">
<path d="M26.322 40.9451L31.9858 8.82368C32.1476 7.90609 33.0227 7.29339 33.9403 7.45519" stroke="#63E8DB" stroke-width="1.13589" stroke-linecap="round"/>
<path fill-rule="evenodd" clip-rule="evenodd" d="M66.1388 17.8495L22.837 42.3122L60.937 47.7953L66.1388 17.8495Z" fill="#0ED0BF"/>
<path d="M71.0621 12.2877L64.4163 11.1158L57.0435 52.9291L63.6893 54.1009L71.0621 12.2877Z" fill="#0FC2B1"/>
</g>
<path fill-rule="evenodd" clip-rule="evenodd" d="M38.9093 14.8984L55.8007 17.8768C56.412 17.9846 56.8208 18.5685 56.713 19.1798L55.59 25.5487C55.4822 26.16 54.8984 26.5688 54.2871 26.461L37.3956 23.4826C36.7843 23.3748 36.3755 22.791 36.4833 22.1797L37.6063 15.8108C37.7141 15.1994 38.298 14.7906 38.9093 14.8984Z" fill="white"/>
<path fill-rule="evenodd" clip-rule="evenodd" d="M36.183 29.5502L53.3514 32.5774C53.8863 32.6717 54.244 33.1826 54.1497 33.7175C54.0553 34.2524 53.5445 34.6101 53.0096 34.5158L35.8412 31.4885C35.3063 31.3942 34.9486 30.8834 35.0429 30.3485C35.1373 29.8135 35.6481 29.4558 36.183 29.5502Z" fill="white"/>
<path fill-rule="evenodd" clip-rule="evenodd" d="M38.3662 33.3613L49.9964 35.412C50.5313 35.5064 50.889 36.0172 50.7946 36.5521C50.7003 37.087 50.1895 37.4447 49.6546 37.3504L38.0244 35.2997C37.4895 35.2054 37.1318 34.6945 37.2261 34.1596C37.3204 33.6247 37.8313 33.267 38.3662 33.3613Z" fill="white"/>
<path fill-rule="evenodd" clip-rule="evenodd" d="M26.322 40.9452L56.9149 46.3395C59.1354 46.7311 60.6077 48.9082 60.2032 51.2021C59.7987 53.4961 57.6707 55.0384 55.4501 54.6468L24.8572 49.2525C24.8572 49.2525 26.4329 47.6026 26.8113 45.457C27.1896 43.3114 26.322 40.9452 26.322 40.9452Z" fill="white"/>
<path fill-rule="evenodd" clip-rule="evenodd" d="M58.7531 47.0883L38.302 51.4506L57.2816 54.8248L59.8123 52.9971L58.7531 47.0883Z" fill="#F6F7FF"/>
<path fill-rule="evenodd" clip-rule="evenodd" d="M29.1636 44.1401C29.1636 44.1401 40.5514 45.4054 43.5038 45.8271C46.4562 46.2489 46.7374 46.9519 46.7374 46.9519L29.1636 44.1401Z" fill="#DDDFED"/>
<path fill-rule="evenodd" clip-rule="evenodd" d="M30.1477 46.6706C30.1477 46.6706 36.0525 48.2171 39.2861 48.7794C42.5197 49.3418 47.4403 49.9042 47.4403 49.9042C47.4403 49.9042 55.1728 51.0289 55.1728 51.4507C55.1728 51.8724 51.5174 51.1695 45.3315 50.3259C39.1455 49.4824 28.1795 47.2329 28.1795 47.2329L30.1477 46.6706Z" fill="#DDDFED"/>
<path fill-rule="evenodd" clip-rule="evenodd" d="M40.8326 47.233C43.785 47.7953 49.268 48.7795 50.1115 48.7795C50.9551 48.7795 49.8304 49.3418 47.8621 49.0606C45.8938 48.7795 38.302 47.233 38.302 47.233C38.302 47.233 37.8802 46.6706 40.8326 47.233Z" fill="#DDDFED"/>
<path fill-rule="evenodd" clip-rule="evenodd" d="M52.9233 51.0289L51.2363 53.2784L50.6739 50.8883L52.9233 51.0289Z" fill="#DDDFED"/>
<path d="M27.4296 41.1405L56.9149 46.3396C59.1355 46.7311 60.6077 48.9082 60.2032 51.2021C59.7987 53.4961 57.6707 55.0384 55.4501 54.6468L25.9648 49.4478" stroke="#0FC2B1" stroke-width="2.27179" stroke-linecap="round"/>
<path fill-rule="evenodd" clip-rule="evenodd" d="M45.107 49.8151L44.423 55.7315C44.3998 55.9321 44.5894 56.0911 44.7829 56.0332L47.8711 55.1101L50.4495 56.5244C50.6338 56.6255 50.8597 56.4961 50.8658 56.286L51.0281 50.6961L45.107 49.8151Z" fill="#E53B54"/>
<mask id="mask2" mask-type="alpha" maskUnits="userSpaceOnUse" x="44" y="49" width="8" height="8">
<path fill-rule="evenodd" clip-rule="evenodd" d="M45.107 49.8151L44.423 55.7315C44.3998 55.9321 44.5894 56.0911 44.7829 56.0332L47.8711 55.1101L50.4495 56.5244C50.6338 56.6255 50.8597 56.4961 50.8658 56.286L51.0281 50.6961L45.107 49.8151Z" fill="#E53B54"/>
</mask>
<g mask="url(#mask2)">
<path fill-rule="evenodd" clip-rule="evenodd" d="M48.2088 49.9002L47.787 55.3832L51.6271 58.664L53.2162 52.2256L53.5241 50.2815L48.2088 49.9002Z" fill="#C7233B"/>
</g>
</svg>
