<svg width="100" height="83" viewBox="0 0 100 83" fill="none" xmlns="http://www.w3.org/2000/svg">
<path d="M15.5813 8.72522C-13.7453 22.4392 7.43916 34.468 6.84574 49.2438C6.34676 61.6683 -6.63201 61.5864 6.84575 73.555C23.693 88.5157 54.2675 82.2821 74.8585 77.9185C95.4496 73.555 103.561 62.9578 98.5694 46.7504C93.5777 30.5429 101.689 18.0757 79.8503 8.72522C58.0113 -0.625223 44.9079 -4.98877 15.5813 8.72522Z" fill="#F7F7FF"/>
<path d="M50.158 45.2412L18.6787 38.3464L51.579 32.4365L84.5885 38.3464L50.158 45.2412Z" fill="#7A4900"/>
<path d="M38.5479 16.3603C38.0763 15.3799 36.8996 14.9682 35.9196 15.4408L30.1005 18.2471C30.2643 17.1576 30.1139 16.009 29.6004 14.9415C28.2408 12.115 24.8501 10.9272 22.0271 12.2886C19.2042 13.65 18.0179 17.045 19.3776 19.8715C19.8911 20.939 20.6943 21.7728 21.6472 22.3237L16.1475 24.9759C15.1675 25.4485 14.7554 26.6264 15.227 27.6068L18.2837 33.9621C18.7092 32.4477 19.7572 31.1166 21.284 30.3802C24.107 29.0189 27.4977 30.2066 28.8573 33.0332C30.217 35.8597 29.0307 39.2547 26.2077 40.6161C24.6809 41.3524 22.988 41.343 21.5402 40.732L25.6054 49.1821L45.0927 39.7843C47.2099 38.7633 48.0996 36.217 47.0799 34.0971L38.5479 16.3603Z" fill="#5588FB"/>
<mask id="mask0" mask-type="alpha" maskUnits="userSpaceOnUse" x="14" y="11" width="34" height="39">
<path d="M37.694 14.585L30.1005 18.2471C30.2643 17.1576 30.1139 16.009 29.6004 14.9415C28.2408 12.115 24.8501 10.9272 22.0271 12.2886C19.2042 13.65 18.0179 17.045 19.3776 19.8715C19.8911 20.939 20.6943 21.7728 21.6472 22.3237L14.3731 25.8316L18.2837 33.9621C18.7092 32.4477 19.7572 31.1166 21.284 30.3802C24.107 29.0189 27.4976 30.2066 28.8573 33.0332C30.217 35.8597 29.0307 39.2547 26.2077 40.6161C24.6809 41.3524 22.988 41.343 21.5402 40.732L25.6054 49.1821L45.0927 39.7843C47.2099 38.7633 48.0996 36.217 47.0799 34.0971L37.694 14.585Z" fill="#5588FB"/>
</mask>
<g mask="url(#mask0)">
<g style="mix-blend-mode:soft-light">
<path d="M24.5982 36.3763L40.8503 10.2744L21.6432 2.39453L5.39111 15.6917L8.34605 35.8838L24.5982 36.3763Z" fill="#7BA4FF"/>
</g>
<g style="mix-blend-mode:multiply">
<circle cx="42.3279" cy="37.8532" r="12.3122" fill="#5588FB" fill-opacity="0.51"/>
</g>
</g>
<path d="M76.1113 22.2458L55.4715 20.7336C54.5386 20.6653 53.6863 21.2624 53.4318 22.1625L45.7314 49.4051L67.4313 57.0097L76.1113 22.2458Z" fill="#13D9C7"/>
<path d="M72.8561 57.5532L80.9608 26.2556C81.08 25.7952 81.0306 25.3052 80.7661 24.9099C80.5203 24.5424 80.1549 24.057 79.6701 23.5716C78.6864 22.5866 76.1111 22.2461 76.1111 22.2461L67.4312 57.01L72.8561 57.5532Z" fill="#0FC2B1"/>
<mask id="mask1" mask-type="alpha" maskUnits="userSpaceOnUse" x="45" y="20" width="32" height="38">
<path d="M76.1113 22.2458L55.4715 20.7336C54.5386 20.6653 53.6863 21.2624 53.4318 22.1625L45.7314 49.4051L67.4313 57.0097L76.1113 22.2458Z" fill="#13D9C7"/>
</mask>
<g mask="url(#mask1)">
<g style="mix-blend-mode:soft-light">
<path d="M50.701 48.1954L75.8179 17.6611L50.701 19.6311L43.8062 32.9283L50.701 48.1954Z" fill="#C4C4C4"/>
</g>
<path d="M68.2313 26.4312L57.8967 25.6045C57.434 25.5675 57.0082 25.8586 56.8748 26.3033L55.9624 29.3444C55.7867 29.93 56.1815 30.5326 56.7885 30.6054L67.0942 31.8421C67.5791 31.9003 68.0334 31.5944 68.1619 31.1233L69.1031 27.6723C69.2654 27.0768 68.8465 26.4805 68.2313 26.4312Z" fill="white" fill-opacity="0.6"/>
<path d="M64.7261 39.4377L56.2998 38.4266C55.9414 38.3836 55.626 38.6634 55.626 39.0243C55.626 39.3157 55.8346 39.5652 56.1214 39.6168L64.4739 41.1203C64.9959 41.2143 65.4758 40.8131 65.4758 40.2827C65.4758 39.8519 65.1538 39.489 64.7261 39.4377Z" fill="white" fill-opacity="0.6"/>
<path d="M63.816 36.4969L57.3068 35.8133C56.9404 35.7748 56.6255 36.0713 56.6418 36.4394C56.6543 36.721 56.8603 36.9563 57.1377 37.006L63.5803 38.1588C64.1101 38.2536 64.591 37.8326 64.5672 37.295C64.5488 36.8797 64.2294 36.5403 63.816 36.4969Z" fill="white" fill-opacity="0.6"/>
<g style="mix-blend-mode:multiply">
<ellipse cx="46.2683" cy="39.3301" rx="12.3122" ry="12.8047" fill="#13D9C7" fill-opacity="0.73"/>
</g>
</g>
<path d="M40.1866 48.2C46.0428 50.3025 52.4924 47.2534 54.5922 41.3898C56.692 35.5262 53.6468 29.0684 47.7906 26.966C41.9344 24.8635 35.4848 27.9126 33.385 33.7762C31.2853 39.6398 34.3305 46.0976 40.1866 48.2Z" fill="#DA334C"/>
<mask id="mask2" mask-type="alpha" maskUnits="userSpaceOnUse" x="32" y="26" width="24" height="23">
<path d="M40.1876 48.2C46.0438 50.3025 52.4934 47.2534 54.5932 41.3898C56.6929 35.5262 53.6477 29.0684 47.7916 26.966C41.9354 24.8635 35.4858 27.9126 33.386 33.7762C31.2863 39.6398 34.3314 46.0976 40.1876 48.2Z" fill="#DA334C"/>
</mask>
<g mask="url(#mask2)">
<path d="M34.974 47.5262L50.6047 23.9789L41.8788 23.7621L30.6848 33.3797L34.974 47.5262Z" fill="#F94F68"/>
</g>
<path d="M48.0748 39.4853L40.5267 40.9568C40.052 41.0493 39.5919 40.7391 39.4991 40.2638C39.4689 40.1088 39.481 39.9486 39.5342 39.8L42.1873 32.3878C42.3504 31.9321 42.8518 31.6952 43.3072 31.8588C43.4557 31.9121 43.5871 32.0046 43.6875 32.1264L48.5825 38.0671C48.8904 38.4408 48.8375 38.9934 48.4644 39.3013C48.3519 39.3942 48.218 39.4574 48.0748 39.4853Z" fill="white"/>
<mask id="mask3" mask-type="alpha" maskUnits="userSpaceOnUse" x="39" y="31" width="10" height="10">
<path d="M48.0748 39.4868L40.5264 40.9573C40.0516 41.0498 39.5914 40.7395 39.4986 40.2642C39.4684 40.1093 39.4805 39.9491 39.5336 39.8005L42.186 32.389C42.3491 31.9332 42.8506 31.6964 43.306 31.8601C43.4545 31.9134 43.5859 32.0059 43.6863 32.1277L48.5823 38.0687C48.8902 38.4424 48.8374 38.9949 48.4643 39.3028C48.3518 39.3957 48.2179 39.4589 48.0748 39.4868Z" fill="white"/>
</mask>
<g mask="url(#mask3)">
<path fill-rule="evenodd" clip-rule="evenodd" d="M47.9873 31.4502L43.8424 41.412L49.0895 43.7875L47.9873 31.4502Z" fill="#E6E7F0"/>
</g>
<path d="M21.0296 64.2395L18.6787 38.3467L50.158 45.2415V77.2533L22.2484 65.8858C21.5664 65.608 21.0962 64.973 21.0296 64.2395Z" fill="#FFCE85"/>
<mask id="mask4" mask-type="alpha" maskUnits="userSpaceOnUse" x="18" y="38" width="33" height="40">
<path d="M21.0291 64.2395L18.6782 38.3467L50.1575 45.2415V77.2533L22.2479 65.8858C21.5659 65.608 21.0957 64.973 21.0291 64.2395Z" fill="#FFCE85"/>
</mask>
<g mask="url(#mask4)">
<path d="M26.5683 71.3437L45.2829 39.8244L15.241 36.377L14.7485 61.9864L26.5683 71.3437Z" fill="#FFDBA5"/>
</g>
<path d="M84.5882 38.3467L50.1577 45.2415V77.2533L81.3192 67.7985C82.1026 67.5607 82.6573 66.8633 82.7127 66.0464L84.5882 38.3467Z" fill="#F4B14C"/>
<mask id="mask5" mask-type="alpha" maskUnits="userSpaceOnUse" x="50" y="38" width="35" height="40">
<path d="M84.5887 38.3467L50.1582 45.2415V77.2533L81.3197 67.7985C82.1031 67.5607 82.6578 66.8633 82.7131 66.0464L84.5887 38.3467Z" fill="#F4B14C"/>
</mask>
<g mask="url(#mask5)">
<path d="M57.1034 81.1928L77.2954 37.3613L47.7461 40.3163V78.2379L57.1034 81.1928Z" fill="#DE952A" fill-opacity="0.46"/>
</g>
</svg>
