<svg width="167" height="121" viewBox="0 0 167 121" fill="none" xmlns="http://www.w3.org/2000/svg">
<path d="M100.523 35.2269C100.523 35.2269 108.922 17.5897 95.0735 10.0531C100.414 5.8421 116.622 4.84933 118.847 14.4252C121.071 24.001 114.429 34.6341 110.829 38.7537L100.523 35.2269Z" fill="#F0C24D"/>
<mask id="mask0" mask-type="alpha" maskUnits="userSpaceOnUse" x="95" y="6" width="25" height="33">
<path d="M100.523 35.2269C100.523 35.2269 108.922 17.5897 95.0735 10.0531C100.414 5.8421 116.622 4.84933 118.847 14.4252C121.071 24.001 114.429 34.6341 110.829 38.7537L100.523 35.2269Z" fill="#F4B14C"/>
</mask>
<g mask="url(#mask0)">
<path d="M100.045 30.3936L100.373 26.9175C100.373 26.9175 107.184 25.076 110.835 25.9161C114.485 26.7561 119.928 29.7326 119.928 29.7326L116.904 37.0744C116.904 37.0744 112.939 32.6839 109.144 31.5076C105.348 30.3313 100.045 30.3936 100.045 30.3936Z" fill="#B83574"/>
<path d="M102.108 20.5091L101.173 17.286C101.173 17.286 107.299 14.5667 111.133 14.6109C114.968 14.6552 120.897 15.6605 120.897 15.6605L120.187 23.6571C120.187 23.6571 114.298 20.9792 111.034 20.5709C107.77 20.1626 102.108 20.5091 102.108 20.5091Z" fill="#B83574"/>
<path d="M98.6894 16.0054L98.2717 14.4318C98.2717 14.4318 99.9231 10.5128 102.192 8.42836C104.46 6.34396 111.83 2.15142 111.83 2.15142L115.263 6.05168C115.263 6.05168 108.642 7.952 105.541 9.90326C102.44 11.8545 98.6894 16.0054 98.6894 16.0054Z" fill="#B83574"/>
<g style="mix-blend-mode:multiply">
<path d="M110.631 10.4987C105.33 7.1982 95.2533 9.37355 92.8779 10.4987L97.5037 3.24756L115.132 3.24756L124.133 12.374L116.507 42.7539L101.504 38.3782C108.929 35.9706 117.257 14.6244 110.631 10.4987Z" fill="#F0C24D" fill-opacity="0.58"/>
</g>
</g>
<path d="M45.2401 62.3878C45.2401 62.3878 26.047 58.7497 28.1432 43.1236C21.5911 44.9465 11.2178 57.4403 17.6317 64.8906C24.0456 72.3409 36.5495 73.2596 41.9997 72.7877L45.2401 62.3878Z" fill="#F0C24D"/>
<mask id="mask1" mask-type="alpha" maskUnits="userSpaceOnUse" x="15" y="43" width="31" height="30">
<path d="M45.2401 62.3878C45.2401 62.3878 26.047 58.7497 28.1432 43.1236C21.5911 44.9465 11.2178 57.4403 17.6317 64.8906C24.0456 72.3409 36.5495 73.2596 41.9997 72.7877L45.2401 62.3878Z" fill="#F4B14C"/>
</mask>
<g mask="url(#mask1)">
<path d="M41.6244 59.1491L38.6253 57.3613C38.6253 57.3613 33.1167 61.7703 31.6389 65.2122C30.161 68.6541 29.3486 74.8043 29.3486 74.8043L37.0594 76.6997C37.0594 76.6997 35.8576 70.9074 37.15 67.1496C38.4424 63.3917 41.6244 59.1491 41.6244 59.1491Z" fill="#B83574"/>
<path d="M32.4283 54.9776L30.3799 52.3191C30.3799 52.3191 24.5674 55.657 22.3386 58.7776C20.1097 61.8982 17.4196 67.2765 17.4196 67.2765L24.2921 71.426C24.2921 71.426 25.6089 65.0922 27.2071 62.2169C28.8052 59.3417 32.4283 54.9776 32.4283 54.9776Z" fill="#B83574"/>
<path d="M30.8129 49.5631L29.7896 48.2967C29.7896 48.2967 25.6518 47.3149 22.63 47.9146C19.6082 48.5143 11.8725 51.9857 11.8725 51.9857L12.9923 57.0599C12.9923 57.0599 18.4362 52.8388 21.8421 51.4887C25.248 50.1387 30.8129 49.5631 30.8129 49.5631Z" fill="#B83574"/>
<g style="mix-blend-mode:multiply">
<path d="M24.366 58.5112C21.4655 53.0104 26.158 45.0507 28.8667 41.7585L48.995 56.0108L47.8698 66.7626C41.2437 66.3042 27.2665 64.0121 24.366 58.5112Z" fill="#F0C24D" fill-opacity="0.58"/>
</g>
</g>
<path d="M117.645 47.7972C128.328 67.6119 122 93.5 102.5 98.5C95.5236 102.261 86.3366 98.8244 78.9995 98.5C65.0622 97.8838 51.3945 100.268 44.3963 87.2865C33.714 67.4717 41.4515 42.5687 61.6786 31.664C81.9057 20.7594 106.963 27.9824 117.645 47.7972Z" fill="#899BFB"/>
<mask id="mask2" mask-type="alpha" maskUnits="userSpaceOnUse" x="25" y="11" width="111" height="110">
<path d="M117.645 47.793C128.328 67.6077 121 94 101 98.5C76.9995 98.5 55.0787 107.097 44.3963 87.2823C33.714 67.4676 41.4515 42.5646 61.6786 31.6599C81.9057 20.7552 106.963 27.9783 117.645 47.793Z" fill="#899BFB"/>
</mask>
<g mask="url(#mask2)">
<ellipse cx="73.0561" cy="65.6629" rx="40.7193" ry="36.1662" transform="rotate(-28.3296 73.0561 65.6629)" fill="#98A8FF"/>
</g>
<circle cx="82.753" cy="46.0064" r="9.25149" fill="#667BEF"/>
<circle cx="62.9967" cy="51.258" r="13.0021" fill="#667BEF"/>
<path d="M102.411 49.4348C106.631 58.4522 99.1744 68.1582 86.1152 74.2698C73.056 80.3814 59.3397 80.5843 55.1196 71.5669C55.1196 71.5669 67.0368 69.4556 80.096 63.3439C93.1552 57.2323 102.411 49.4348 102.411 49.4348Z" fill="#631414"/>
<path d="M63.4014 69.177L73.1482 65.9802L74.4105 69.8288C74.999 71.6231 74.0215 73.5548 72.2271 74.1433C68.6384 75.3204 64.7751 73.3653 63.598 69.7766L63.4014 69.177Z" fill="white"/>
<path d="M76.6987 64.2563L84.3639 60.6257L86.7814 65.7297C87.4674 67.1781 86.8494 68.9084 85.4011 69.5944L82.9809 70.7407C81.5326 71.4267 79.8023 70.8087 79.1163 69.3604L76.6987 64.2563Z" fill="white"/>
<path d="M87.9775 58.4231L95.916 53.5159L96.4902 54.4447C98.1233 57.0866 97.3055 60.5523 94.6636 62.1854L94.3227 62.3961C92.7686 63.3568 90.73 62.8757 89.7693 61.3217L87.9775 58.4231Z" fill="white"/>
<ellipse cx="64.5728" cy="51.9244" rx="9.84334" ry="10.5341" transform="rotate(-24.5029 64.5728 51.9244)" fill="white"/>
<ellipse cx="67.7045" cy="55.5761" rx="3.97187" ry="4.31725" transform="rotate(-24.5029 67.7045 55.5761)" fill="#403E3E"/>
<ellipse rx="6.31781" ry="6.76116" transform="matrix(-0.884476 0.466587 0.466587 0.884476 82.4915 47.9342)" fill="white"/>
<ellipse rx="2.54929" ry="2.77097" transform="matrix(-0.884476 0.466587 0.466587 0.884476 83.2495 51.2272)" fill="#403E3E"/>
<path d="M43.952 37.1487C47.0753 41.8862 55.0765 40.1359 55.0765 40.1359L73.0794 30.7594C73.0794 30.7594 79.9556 25.0085 78.5104 20.4576C77.0652 15.9068 72.72 29.2591 72.72 29.2591C72.72 29.2591 73.7842 25.1905 72.4543 23.2582C71.1244 21.3259 69.3193 28.9277 69.3193 28.9277C69.3193 28.9277 70.8818 19.3366 68.7679 18.091C66.6539 16.8454 64.7238 29.9242 64.7238 29.9242C64.7238 29.9242 63.953 23.8833 58.5658 19.8348C53.1786 15.7864 61.415 32.1663 61.415 32.1663C61.415 32.1663 59.3272 29.5092 56.705 26.6337C54.0829 23.7583 48.2723 22.1787 47.5753 23.2582C46.9015 24.3018 52.6014 26.9362 54.7056 30.1343C56.6195 33.0432 57.0033 34.4084 57.0033 34.4084C57.0033 34.4084 50.8259 29.2591 49.0756 31.3845C47.3253 33.5098 54.7056 36.7751 54.7056 36.7751C54.7056 36.7751 40.8288 32.4113 43.952 37.1487Z" fill="#98A8FF"/>
<path d="M21.5242 78.0327C27.5781 77.6096 39.9353 80.9211 39.5871 84.9592C39.2389 88.9973 32.7398 91.1582 23.12 91.8305C13.5003 92.5027 6.5015 90.1857 7.17298 85.022C7.84445 79.8584 15.4702 78.4558 21.5242 78.0327Z" fill="#677EFC"/>
<path d="M12.3689 83.6448C15.0092 84.6916 16.8824 87.0857 15.6323 89.9118C14.3822 92.7378 11.2283 94.1802 8.58796 93.1334C5.94758 92.0866 4.82053 88.9471 6.07062 86.1211C7.32071 83.295 9.72848 82.598 12.3689 83.6448Z" fill="#98A8FF"/>
<path d="M11.104 85.1662C13.04 85.9338 14.4135 87.6893 13.4968 89.7614C12.5802 91.8336 10.2677 92.8912 8.33167 92.1236C6.39564 91.3561 5.56924 89.0541 6.48585 86.9819C7.40247 84.9098 9.16794 84.3987 11.104 85.1662Z" fill="#B6C1FF"/>
<path d="M23.396 83.9727C26.7959 83.9122 29.9603 84.9185 29.7211 88.4339C29.4819 91.9493 26.5319 94.8482 23.132 94.9087C19.7322 94.9692 17.17 92.1685 17.4091 88.6531C17.6483 85.1377 19.9962 84.0333 23.396 83.9727Z" fill="#98A8FF"/>
<path d="M22.2384 85.8627C24.5722 85.8212 26.7444 86.5119 26.5802 88.925C26.416 91.3382 24.391 93.3281 22.0572 93.3696C19.7234 93.4111 17.9646 91.4886 18.1288 89.0755C18.293 86.6624 19.9046 85.9043 22.2384 85.8627Z" fill="#B6C1FF"/>
<path d="M34.0666 85.2886C36.0247 83.2349 37.7745 82.2225 39.6012 84.0702C41.428 85.9179 41.3215 89.0806 39.3634 91.1343C37.4052 93.1879 34.337 93.3549 32.5103 91.5072C30.6835 89.6596 32.1085 87.3422 34.0666 85.2886Z" fill="#98A8FF"/>
<path d="M33.9148 86.4072C35.3684 84.8827 36.6673 84.1312 38.0234 85.5028C39.3794 86.8744 39.3004 89.2222 37.8468 90.7467C36.3932 92.2712 34.1155 92.3952 32.7595 91.0236C31.4034 89.652 32.4612 87.9317 33.9148 86.4072Z" fill="#B6C1FF"/>
<path d="M141.384 77.4476C147.451 77.3116 159.638 81.2044 159.099 85.2215C158.56 89.2385 151.966 91.0893 142.325 91.3054C132.684 91.5215 125.803 88.8757 126.718 83.7496C127.633 78.6235 135.317 77.5836 141.384 77.4476Z" fill="#677EFC"/>
<path d="M131.969 82.618C134.557 83.7886 136.315 86.2688 134.932 89.0324C133.55 91.7961 130.331 93.0875 127.743 91.9169C125.155 90.7463 124.178 87.557 125.561 84.7933C126.943 82.0296 129.381 81.4474 131.969 82.618Z" fill="#98A8FF"/>
<path d="M131.354 83.385C133.252 84.2434 134.665 85.8117 133.904 87.3349C133.142 88.8581 130.986 89.3971 129.088 88.5388C127.191 87.6804 126.27 85.7498 127.032 84.2266C127.794 82.7034 129.456 82.5267 131.354 83.385Z" fill="#B6C1FF"/>
<path d="M142.972 83.4719C146.371 83.5724 149.484 84.7274 149.079 88.2275C148.674 91.7277 145.59 94.4837 142.191 94.3832C138.792 94.2826 136.365 91.3637 136.771 87.8636C137.176 84.3634 139.573 83.3714 142.972 83.4719Z" fill="#98A8FF"/>
<path d="M143.24 84.275C145.573 84.344 147.727 84.9923 147.504 86.9172C147.281 88.8422 145.209 90.3467 142.876 90.2778C140.543 90.2088 138.832 88.5923 139.055 86.6674C139.278 84.7424 140.907 84.2061 143.24 84.275Z" fill="#B6C1FF"/>
<path d="M153.568 85.2889C155.621 83.3302 157.417 82.4018 159.154 84.3339C160.891 86.266 160.635 89.4201 158.582 91.3788C156.529 93.3375 153.456 93.359 151.719 91.4269C149.982 89.4948 151.515 87.2476 153.568 85.2889Z" fill="#98A8FF"/>
<path d="M154.965 85.0012C156.213 83.8112 157.307 83.2501 158.374 84.4375C159.442 85.6249 159.296 87.5522 158.049 88.7422C156.801 89.9323 154.925 89.9344 153.857 88.747C152.789 87.5596 153.718 86.1913 154.965 85.0012Z" fill="#B6C1FF"/>
</svg>
