<?xml version="1.0" encoding="utf-8"?>
<!-- Svg Vector Icons : http://www.onlinewebfonts.com/icon -->
<!DOCTYPE svg PUBLIC "-//W3C//DTD SVG 1.1//EN" "http://www.w3.org/Graphics/SVG/1.1/DTD/svg11.dtd">
<svg version="1.1" xmlns="http://www.w3.org/2000/svg" xmlns:xlink="http://www.w3.org/1999/xlink" x="0px" y="0px" viewBox="0 0 1000 1000" enable-background="new 0 0 1000 1000" xml:space="preserve">
<metadata> Svg Vector Icons : http://www.onlinewebfonts.com/icon </metadata>
<g><path d="M795.1,704.1c20,0,38.6,3.7,55.9,11c17.3,7.3,32.5,17.5,45.5,30.6c13.1,13.1,23.2,28.2,30.6,45.5c7.3,17.3,10.9,35.9,10.9,55.9c0,20-3.7,38.6-10.9,55.9c-7.3,17.3-17.5,32.5-30.6,45.5c-13.1,13.1-28.2,23.3-45.5,30.6c-17.3,7.3-35.9,11-55.9,11c-20,0-38.6-3.6-55.9-11c-17.3-7.3-32.5-17.5-45.5-30.6c-13.1-13.1-23.3-28.3-30.6-45.5c-7.3-17.3-11-35.9-11-55.9v-8.6c0-2.7,0.4-5.2,1.2-7.5c0-3.1,0.2-5.9,0.6-8.6c0.4-2.7,1-5.2,1.7-7.5L305.2,610.7c-6.9,6.2-14,11.7-21.3,16.7c-7.3,5-15.2,9-23.6,12.1c-8.5,3.9-17.3,6.5-26.5,8.1c-9.2,1.5-18.8,2.3-28.8,2.3c-20,0-39-3.8-57.1-11.5c-18.1-7.7-33.6-18.1-46.7-31.1c-13.8-13.8-24.6-29.6-32.3-47.3c-7.7-17.7-11.5-36.9-11.5-57.6c0-20,3.8-39,11.5-57.1c7.7-18,18.4-33.6,32.3-46.7c13.1-13.8,28.6-24.6,46.7-32.3c18-7.7,37.1-11.5,57.1-11.5c10,0,19.6,1,28.8,2.9c9.2,1.9,18,4.8,26.5,8.6c8.4,3.1,16.3,7.1,23.6,12.1c7.3,5,14.4,10.6,21.3,16.7l347-202.9c-0.8-2.3-1.4-5-1.7-8.1c-0.4-3.1-1-5.8-1.7-8.1c0-3.1-0.2-6.1-0.6-9.2c-0.4-3.1-0.6-6.1-0.6-9.2c0-20,3.8-39,11.5-57.1c7.7-18.1,18.4-33.6,32.3-46.7c13.1-13.1,28.6-23.6,46.7-31.7C756.1,14,775.2,10,795.2,10c20,0,39,4,57.1,12.1c18.1,8.1,33.6,18.6,46.7,31.7c13.8,13.1,24.6,28.6,32.3,46.7c7.7,18.1,11.5,37.1,11.5,57.1c0,20.8-3.9,40.2-11.5,58.2c-7.7,18.1-18.4,33.6-32.3,46.7c-13.1,13.1-28.6,23.5-46.7,31.1c-18.1,7.7-37.1,11.5-57.1,11.5c-10,0-19.6-0.8-28.8-2.3c-9.2-1.5-18.1-4.2-26.5-8.1c-8.5-3.1-16.3-7.1-23.6-12.1c-7.3-5-14.4-10.6-21.3-16.7l-347,201.8c0.8,3.1,1.3,6,1.7,8.6c0.4,2.7,1,5.6,1.7,8.6c0,3.1,0.2,6,0.6,8.6c0.4,2.7,0.6,5.6,0.6,8.6c0,3.1-0.2,6.2-0.6,9.2c-0.4,3.1-0.6,6.2-0.6,9.2c-0.8,2.3-1.4,5-1.7,8.1c-0.4,3.1-1,5.8-1.7,8.1L698.3,741c6.1-5.4,13.1-10.4,20.8-15c7.7-4.6,15.4-8.8,23.1-12.7c8.4-3.1,17.1-5.4,25.9-6.9C776.9,704.8,785.9,704.1,795.1,704.1L795.1,704.1z"/></g>
</svg>